<svg width="1440" height="446" viewBox="0 0 1440 446" fill="none" xmlns="http://www.w3.org/2000/svg">
<path opacity="0.7" d="M1361.34 542.083L1877.1 288.054L1877.1 598.091L1361.56 850.323L1361.34 542.083Z" stroke="#CCCCF5" stroke-width="4"/>
<path d="M1359.31 69.2221L1928.34 -210.919L2050.81 40.183L1359.57 377.328L1359.31 69.2221Z" stroke="#CCCCF5" stroke-width="4"/>
<path d="M1201.34 272.083L1717.1 18.0538L1717.1 368.091L1201.57 620.323L1201.34 272.083Z" stroke="#CCCCF5" stroke-width="4"/>
<path d="M932.341 639.083L1448.1 385.054L1448.1 695.091L932.565 947.323L932.341 639.083Z" stroke="#CCCCF5" stroke-width="4"/>
<path d="M-443.659 171.244L72.1025 -82.7855L72.1025 267.252L-443.435 519.484L-443.659 171.244Z" stroke="#CCCCF5" stroke-width="4"/>
<path d="M-515.692 74.3827L53.3431 -205.758L175.814 45.3436L-515.436 382.488L-515.692 74.3827Z" stroke="#CCCCF5" stroke-width="4"/>
</svg>
